<svg width="123" height="123" viewBox="0 0 123 123" fill="none" xmlns="http://www.w3.org/2000/svg">
<path d="M119.871 61.1857C119.871 93.597 93.597 119.871 61.1857 119.871C28.7745 119.871 2.5 93.597 2.5 61.1857C2.5 28.7745 28.7745 2.5 61.1857 2.5C93.597 2.5 119.871 28.7745 119.871 61.1857Z" fill="url(#paint0_linear_32:210)" stroke="white" stroke-width="5"/>
<path d="M61.5001 65.0834V83.4167H43.1667C43.1667 78.5544 45.0983 73.8913 48.5365 70.4531C51.9746 67.015 56.6378 65.0834 61.5001 65.0834ZM75.2501 82.2709L68.5149 85.8115L69.8005 78.3132L64.3532 73.0011L71.8836 71.9057L75.2501 65.0834L78.6188 71.9057L86.1469 73.0011L80.6997 78.3132L81.983 85.8115L75.2501 82.2709ZM61.5001 62.7917C53.9032 62.7917 47.7501 56.6386 47.7501 49.0417C47.7501 41.4449 53.9032 35.2917 61.5001 35.2917C69.097 35.2917 75.2501 41.4449 75.2501 49.0417C75.2501 56.6386 69.097 62.7917 61.5001 62.7917Z" fill="white"/>
<defs>
<linearGradient id="paint0_linear_32:210" x1="3" y1="2" x2="111" y2="122" gradientUnits="userSpaceOnUse">
<stop stop-color="#A953FF"/>
<stop offset="0.53125" stop-color="#FF87B2"/>
<stop offset="1" stop-color="#FF5ABD"/>
</linearGradient>
</defs>
</svg>
