<svg width="123" height="123" viewBox="0 0 123 123" fill="none" xmlns="http://www.w3.org/2000/svg">
<path d="M119.871 61.1857C119.871 93.597 93.597 119.871 61.1857 119.871C28.7745 119.871 2.5 93.597 2.5 61.1857C2.5 28.7745 28.7745 2.5 61.1857 2.5C93.597 2.5 119.871 28.7745 119.871 61.1857Z" fill="url(#paint0_linear_32:228)" stroke="white" stroke-width="5"/>
<path d="M38.5833 83.4167C38.5833 78.5544 40.5148 73.8913 43.953 70.4531C47.3911 67.015 52.0543 65.0834 56.9166 65.0834C61.7789 65.0834 66.442 67.015 69.8802 70.4531C73.3184 73.8913 75.2499 78.5544 75.2499 83.4167H38.5833ZM56.9166 62.7917C49.3197 62.7917 43.1666 56.6386 43.1666 49.0417C43.1666 41.4449 49.3197 35.2917 56.9166 35.2917C64.5135 35.2917 70.6666 41.4449 70.6666 49.0417C70.6666 56.6386 64.5135 62.7917 56.9166 62.7917ZM73.7901 67.909C77.2956 68.81 80.4274 70.7939 82.7398 73.5782C85.0522 76.3626 86.4273 79.8055 86.6693 83.4167H79.8333C79.8333 77.4355 77.5416 71.9905 73.7901 67.909ZM69.1541 62.6932C71.0745 60.9755 72.6103 58.8715 73.6608 56.5189C74.7113 54.1663 75.2528 51.6182 75.2499 49.0417C75.2548 45.9101 74.4538 42.8299 72.9239 40.0974C75.5195 40.6189 77.8544 42.0232 79.5318 44.0716C81.2091 46.1199 82.1254 48.6859 82.1249 51.3334C82.1255 52.9661 81.7771 54.5802 81.1031 56.0673C80.429 57.5544 79.4449 58.8802 78.2166 59.9559C76.9883 61.0316 75.5443 61.8324 73.9813 62.3045C72.4183 62.7766 70.7725 62.9091 69.1541 62.6932Z" fill="white"/>
<defs>
<linearGradient id="paint0_linear_32:228" x1="16" y1="7" x2="105" y2="120.5" gradientUnits="userSpaceOnUse">
<stop stop-color="#28EAF3"/>
<stop offset="1" stop-color="#FC54FF"/>
</linearGradient>
</defs>
</svg>
