<svg width="281" height="90" viewBox="0 0 281 90" fill="none" xmlns="http://www.w3.org/2000/svg">
<path d="M0 88.59V52.9895C0 48.0548 1.14202 43.6292 3.42605 39.7127C5.78885 35.7963 9.13614 32.7023 13.4679 30.4308C17.7997 28.0809 22.9585 26.9059 28.9442 26.9059C33.3548 26.9059 37.2928 27.6109 40.7582 29.0208C44.3024 30.4307 47.2165 32.3106 49.5006 34.6605H49.7368C52.0996 32.3106 55.0137 30.4307 58.4792 29.0208C62.0234 27.6109 66.0401 26.9059 70.5294 26.9059C76.5152 26.9059 81.6739 28.0809 86.0057 30.4308C90.3375 32.7023 93.6848 35.7963 96.0476 39.7127C98.4104 43.6292 99.5918 48.0548 99.5918 52.9895V88.59H81.162V53.577C81.162 50.6005 80.0987 48.0548 77.9722 45.9399C75.9245 43.825 73.286 42.7676 70.0569 42.7676C66.8277 42.7676 64.1499 43.825 62.0234 45.9399C59.9756 48.0548 58.9517 50.6005 58.9517 53.577V88.59H40.6401V53.577C40.6401 50.6005 39.5374 48.0548 37.3322 45.9399C35.2056 43.825 32.5672 42.7676 29.4168 42.7676C26.1876 42.7676 23.5098 43.825 21.3833 45.9399C19.3355 48.0548 18.3117 50.6005 18.3117 53.577V88.59H0Z" fill="white"/>
<path d="M113.179 88.59V28.3159H131.609V88.59H113.179Z" fill="white"/>
<path d="M145.021 88.59V53.9295C145.021 48.9164 146.242 44.3733 148.683 40.3002C151.125 36.2271 154.59 32.9764 159.08 30.5482C163.648 28.12 169.043 26.9059 175.265 26.9059C181.487 26.9059 186.843 28.12 191.332 30.5482C195.821 32.9764 199.247 36.2271 201.61 40.3002C203.973 44.3733 205.154 48.9164 205.154 53.9295V88.59H186.843V54.3994C186.843 51.2663 185.701 48.5639 183.417 46.2924C181.211 43.9425 178.455 42.7676 175.147 42.7676C171.76 42.7676 168.925 43.9425 166.641 46.2924C164.435 48.5639 163.333 51.2663 163.333 54.3994V88.59H145.021Z" fill="white"/>
<path d="M243.195 89.9999C237.761 89.9999 232.996 88.6292 228.9 85.8877C224.884 83.1462 221.733 79.4647 219.449 74.8433C217.165 70.1436 216.023 64.8563 216.023 58.9817C216.023 52.872 217.323 47.4281 219.922 42.6501C222.6 37.7937 226.38 33.9556 231.263 31.1357C236.225 28.3159 242.093 26.9059 248.866 26.9059C255.639 26.9059 261.389 28.3159 266.114 31.1357C270.919 33.9556 274.581 37.7545 277.101 42.5326C279.7 47.3106 281 52.6762 281 58.6292V88.59H263.043V78.9556H262.57C260.837 82.0887 258.435 84.7127 255.364 86.8276C252.292 88.9425 248.236 89.9999 243.195 89.9999ZM248.63 74.2558C252.804 74.2558 256.112 72.7676 258.553 69.7911C261.074 66.7362 262.334 62.9373 262.334 58.3942C262.334 54.0861 261.074 50.4438 258.553 47.4673C256.112 44.4125 252.804 42.8851 248.63 42.8851C244.298 42.8851 240.872 44.4125 238.352 47.4673C235.91 50.4438 234.689 54.0861 234.689 58.3942C234.689 62.859 235.91 66.6188 238.352 69.6736C240.872 72.7284 244.298 74.2558 248.63 74.2558Z" fill="white"/>
<path d="M114.833 18.329C116.959 20.4439 119.48 21.5013 122.394 21.5013C125.387 21.5013 127.907 20.4439 129.955 18.329C132.081 16.2141 133.144 13.7076 133.144 10.8094C133.144 7.8329 132.081 5.2872 129.955 3.17232C127.907 1.05744 125.387 0 122.394 0C119.48 0 116.959 1.05744 114.833 3.17232C112.706 5.2872 111.643 7.8329 111.643 10.8094C111.643 13.7076 112.706 16.2141 114.833 18.329Z" fill="#F3C289"/>
</svg>
